<svg xmlns="http://www.w3.org/2000/svg" width="50" height="50" viewBox="0 0 50 50">
  <path id="clear_sky_night" d="M25.65-1.643A25.482,25.482,0,0,1,7.513-9.155,25.481,25.481,0,0,1,0-27.292,25.454,25.454,0,0,1,4.955-42.451a25.541,25.541,0,0,1,12.609-9.192,30.51,30.51,0,0,0-2.4,14.92,22.258,22.258,0,0,0,6.3,13.616,22.927,22.927,0,0,0,16.417,6.441A31.629,31.629,0,0,0,50-19.206,25.543,25.543,0,0,1,40.808-6.6,25.453,25.453,0,0,1,25.65-1.643Z" transform="translate(0 51.643)" fill="rgba(255,212,94,0.61)"/>
</svg>
