<svg xmlns="http://www.w3.org/2000/svg" width="25" height="33" viewBox="0 0 25 33">
  <g id="contact" transform="translate(-21 -20)">
    <g id="address_book">
      <rect id="book" width="23" height="33" rx="3" transform="translate(21 20)" fill="#373737"/>
      <rect id="clip_1" width="3" height="2" rx="1" transform="translate(43 36)" fill="#373737"/>
      <rect id="clip_2" width="3" height="2" rx="1" transform="translate(43 29)" fill="#373737"/>
      <rect id="clip_3" width="3" height="2" rx="1" transform="translate(43 43)" fill="#373737"/>
    </g>
    <g id="person">
      <circle id="head" cx="4" cy="4" r="4" transform="translate(28.5 29)" fill="#fff"/>
      <path id="body" d="M12.834,11.741H0A9.589,9.589,0,0,1,2.5,7.422a6.82,6.82,0,0,1,.942-.754,4,4,0,0,0,5.959,0,6.827,6.827,0,0,1,.942.753,9.592,9.592,0,0,1,2.5,4.316Z" transform="translate(26.083 29.831)" fill="#fff"/>
    </g>
  </g>
</svg>
