<svg xmlns="http://www.w3.org/2000/svg" width="88" height="50" viewBox="0 0 88 50">
  <g id="partly_cloudy" transform="translate(-86 -98)">
    <circle id="sun" cx="25" cy="25" r="25" transform="translate(100 98)" fill="#ffd45e"/>
    <g id="big_cloud" transform="translate(109 34.317)" fill="#eee">
      <path d="M 53.83217620849609 112.6828994750977 L 15.9803409576416 112.6828994750977 C 12.13142108917236 112.6828994750977 9.000101089477539 109.879264831543 9.000101089477539 106.4331359863281 C 9.000101089477539 105.0713653564453 9.481261253356934 103.7769165039063 10.39155101776123 102.6897583007813 C 11.28908157348633 101.6178283691406 12.56790161132813 100.8190383911133 13.992431640625 100.4405136108398 L 14.80330085754395 100.2250671386719 L 14.73201084136963 99.38909912109375 C 14.71047115325928 99.13638305664063 14.69954109191895 98.87938690185547 14.69954109191895 98.62521362304688 C 14.69954109191895 93.33418273925781 19.36537170410156 89.02962493896484 25.10046195983887 89.02962493896484 C 27.08675193786621 89.02962493896484 29.01758193969727 89.54818725585938 30.68421173095703 90.52923583984375 L 31.4201602935791 90.96244812011719 L 31.96324157714844 90.30338287353516 C 33.11457061767578 88.90616607666016 34.63397979736328 87.74618530273438 36.35721969604492 86.94884490966797 C 38.1728630065918 86.10875701904297 40.13858032226563 85.68279266357422 42.19980239868164 85.68279266357422 C 47.96315002441406 85.68279266357422 53.00783157348633 89.14000701904297 54.46753311157227 94.09009552001953 L 54.6439323425293 94.68827819824219 L 55.25871276855469 94.79304504394531 C 57.71865081787109 95.21225738525391 59.95264053344727 96.33547973632813 61.54916000366211 97.95579528808594 C 63.12935256958008 99.55954742431641 63.99959945678711 101.5798034667969 63.99959945678711 103.6444473266602 C 63.99959945678711 105.8004150390625 63.0595817565918 107.8895568847656 61.35270309448242 109.5270462036133 C 59.62102127075195 111.1883163452148 57.23015975952148 112.2755126953125 54.62055969238281 112.58837890625 L 53.83217620849609 112.6828994750977 Z" stroke="none"/>
      <path d="M 53.77240753173828 111.6828994750977 L 54.50152206420898 111.5954895019531 C 56.89705276489258 111.3082962036133 59.08432006835938 110.3174285888672 60.6604118347168 108.8054122924805 C 62.16886138916016 107.3582992553711 62.99959945678711 105.5254364013672 62.99959945678711 103.6444473266602 C 62.99959945678711 99.86777496337891 59.67343139648438 96.55980682373047 55.0907096862793 95.77883911132813 L 53.86115264892578 95.56929779052734 L 53.50836944580078 94.37294769287109 C 52.87874221801758 92.23779296875 51.44242095947266 90.29901885986328 49.46399307250977 88.91375732421875 C 47.37952041625977 87.45424652099609 44.86759948730469 86.68279266357422 42.19980239868164 86.68279266357422 C 40.28466033935547 86.68279266357422 38.46021270751953 87.07765960693359 36.77715301513672 87.85640716552734 C 35.18923950195313 88.59112548828125 33.7914924621582 89.65717315673828 32.73498153686523 90.93931579589844 L 31.64883041381836 92.2574462890625 L 30.17693138122559 91.39101409912109 C 28.66391181945801 90.50038909912109 26.90850067138672 90.02962493896484 25.10046195983887 90.02962493896484 C 19.91678047180176 90.02962493896484 15.69954109191895 93.88559722900391 15.69954109191895 98.62521362304688 C 15.69954109191895 98.85114288330078 15.70925140380859 99.07956695556641 15.72840118408203 99.30413818359375 L 15.8709716796875 100.97607421875 L 14.24923133850098 101.406982421875 C 13.02228164672852 101.7329940795898 11.92456150054932 102.4165573120117 11.15827083587646 103.3317337036133 C 10.40059089660645 104.2366333007813 10.00010108947754 105.3090896606445 10.00010108947754 106.4331359863281 C 10.00010108947754 109.3278656005859 12.68282127380371 111.6828994750977 15.9803409576416 111.6828994750977 L 53.77240753173828 111.6828994750977 M 54.73958969116211 113.6828994750977 L 15.9803409576416 113.6828994750977 C 11.57264137268066 113.6828994750977 8.000101089477539 110.4374694824219 8.000101089477539 106.4331359863281 C 8.000101089477539 103.136833190918 10.42087078094482 100.3548278808594 13.73563098907471 99.47405242919922 C 13.71175098419189 99.19400787353516 13.69954109191895 98.91097259521484 13.69954109191895 98.62521362304688 C 13.69954109191895 92.7738037109375 18.80389213562012 88.02962493896484 25.10046195983887 88.02962493896484 C 27.34025192260742 88.02962493896484 29.4294605255127 88.6302490234375 31.19149208068848 89.66745758056641 C 33.68296051025391 86.64388275146484 37.68606948852539 84.68279266357422 42.19980239868164 84.68279266357422 C 48.54291152954102 84.68279266357422 53.87789154052734 88.55500793457031 55.42670059204102 93.80725860595703 C 60.88891220092773 94.73810577392578 64.99960327148438 98.78849792480469 64.99960327148438 103.6444473266602 C 64.99960327148438 108.7020797729492 60.54062271118164 112.8857955932617 54.73958969116211 113.5812683105469 L 54.73958969116211 113.6828994750977 Z" stroke="none" fill="#fff"/>
    </g>
    <g id="small_cloud" transform="translate(78 17.317)" fill="#eee">
      <path d="M 37.72902297973633 102.6828994750977 L 13.18023109436035 102.6828994750977 C 10.87530136108398 102.6828994750977 9.000101089477539 101.0007171630859 9.000101089477539 98.93304443359375 C 9.000101089477539 98.12112426757813 9.285131454467773 97.348388671875 9.82439136505127 96.69834899902344 C 10.36115169525146 96.05131530761719 11.12747097015381 95.56873321533203 11.98218154907227 95.33951568603516 L 12.79005146026611 95.12285614013672 L 12.71960163116455 94.28941345214844 C 12.70641136169434 94.13339233398438 12.69972133636475 93.97461700439453 12.69972133636475 93.8175048828125 C 12.69972133636475 90.54109954833984 15.57100105285645 87.87554931640625 19.10028076171875 87.87554931640625 C 20.32565116882324 87.87554931640625 21.51623153686523 88.19809722900391 22.54330062866211 88.80832672119141 L 23.28392028808594 89.24835968017578 L 23.82872200012207 88.58102416992188 C 25.31031036376953 86.76624298095703 27.69202041625977 85.68279266357422 30.19980049133301 85.68279266357422 C 33.78528213500977 85.68279266357422 36.92119979858398 87.84518432617188 37.82577133178711 90.94134521484375 L 38.00085067749023 91.54060363769531 L 38.61613082885742 91.64643859863281 C 41.73551940917969 92.18297576904297 43.99959945678711 94.47904968261719 43.99959945678711 97.10597229003906 C 43.99959945678711 98.42545318603516 43.42657089233398 99.70697784423828 42.38608169555664 100.7144775390625 C 41.31682205200195 101.7498245239258 39.83710098266602 102.4278030395508 38.21949005126953 102.6235427856445 L 37.72902297973633 102.6828994750977 Z" stroke="none"/>
      <path d="M 37.66872406005859 101.6828994750977 L 38.09936141967773 101.6307830810547 C 40.89295959472656 101.2927551269531 42.99959945678711 99.34750366210938 42.99959945678711 97.10597229003906 C 42.99959945678711 94.96733856201172 41.08479309082031 93.08573913574219 38.44660949707031 92.63196563720703 L 37.21606063842773 92.42030334472656 L 36.86589050292969 91.22177886962891 C 36.08510208129883 88.54929351806641 33.34390258789063 86.68279266357422 30.19980049133301 86.68279266357422 C 27.98916053771973 86.68279266357422 25.89703178405762 87.62882232666016 24.60336112976074 89.21343231201172 L 23.51374053955078 90.54808807373047 L 22.03252029418945 89.66802978515625 C 21.159912109375 89.14958953857422 20.14596176147461 88.87554931640625 19.10028076171875 88.87554931640625 C 16.12240028381348 88.87554931640625 13.69972133636475 91.09249877929688 13.69972133636475 93.8175048828125 C 13.69972133636475 93.94662475585938 13.7052116394043 94.07705688476563 13.71604156494141 94.20518493652344 L 13.8569507598877 95.87206268310547 L 12.2412109375 96.30538940429688 C 10.92168140411377 96.65926361083984 10.00010108947754 97.73979949951172 10.00010108947754 98.93304443359375 C 10.00010108947754 100.4493179321289 11.42670154571533 101.6828994750977 13.18023109436035 101.6828994750977 L 37.66872406005859 101.6828994750977 M 38.33962249755859 103.6828994750977 L 13.18023109436035 103.6828994750977 C 10.31910133361816 103.6828994750977 8.000101089477539 101.5565795898438 8.000101089477539 98.93304443359375 C 8.000101089477539 96.77339935302734 9.571471214294434 94.95069885253906 11.72315120697021 94.37364959716797 C 11.7076416015625 94.19016265869141 11.69972133636475 94.00472259521484 11.69972133636475 93.8175048828125 C 11.69972133636475 89.98380279541016 15.0130615234375 86.87554931640625 19.10028076171875 86.87554931640625 C 20.5541820526123 86.87554931640625 21.91032028198242 87.26905822753906 23.05409049987793 87.94861602783203 C 24.67135047912598 85.96765899658203 27.26985168457031 84.68279266357422 30.19980049133301 84.68279266357422 C 34.31724166870117 84.68279266357422 37.78028106689453 87.21977233886719 38.78564071655273 90.66090393066406 C 42.33127212524414 91.27076721191406 44.99959945678711 93.92448425292969 44.99959945678711 97.10597229003906 C 44.99959945678711 100.4196090698242 42.10519027709961 103.1606597900391 38.33962249755859 103.6163024902344 L 38.33962249755859 103.6828994750977 Z" stroke="none" fill="#fff"/>
    </g>
  </g>
</svg>
