<svg xmlns="http://www.w3.org/2000/svg" width="56" height="35.408" viewBox="0 0 56 35.408">
  <g id="shower_rain" transform="translate(-371 -110.711)">
    <g id="big_cloud" transform="translate(386 110.711)" fill="#707070">
      <path d="M 32.94993591308594 19.99999809265137 L 5.740220069885254 19.99999809265137 C 3.126450061798096 19.99999809265137 1 18.09353828430176 1 15.75018787384033 C 1 14.82843780517578 1.324180006980896 13.95145797729492 1.937510013580322 13.21403789520264 C 2.546410083770752 12.48193836212158 3.415260076522827 11.93603801727295 4.383999824523926 11.67689800262451 L 5.192689895629883 11.46057796478271 L 5.12201976776123 10.6264476776123 C 5.107160091400146 10.45107841491699 5.099629878997803 10.27267837524414 5.099629878997803 10.09619808197021 C 5.099629878997803 6.416888236999512 8.329870223999023 3.423557996749878 12.30037021636963 3.423557996749878 C 13.67805957794189 3.423557996749878 15.01679992675781 3.785358190536499 16.17185974121094 4.469858169555664 L 16.91116905212402 4.907978057861328 L 17.45549964904785 4.242958068847656 C 18.25725936889648 3.263437986373901 19.31611061096191 2.449868202209473 20.5175895690918 1.890218138694763 C 21.78573036193848 1.299508094787598 23.15925025939941 0.9999980926513672 24.60000038146973 0.9999980926513672 C 28.62120056152344 0.9999980926513672 32.13893127441406 3.421418190002441 33.15449142456055 6.888448238372803 L 33.32994079589844 7.48740816116333 L 33.9450798034668 7.59293794631958 C 37.45354080200195 8.19484806060791 40 10.776198387146 40 13.73079776763916 C 40 15.21742820739746 39.35366058349609 16.66037750244141 38.18003082275391 17.79383850097656 C 36.9782600402832 18.95449829101563 35.31621932983398 19.71440887451172 33.50009918212891 19.93359756469727 L 32.94993591308594 19.99999809265137 Z" stroke="none"/>
      <path d="M 32.88985443115234 18.99999809265137 L 33.38027954101563 18.9408073425293 C 36.58404159545898 18.55413818359375 39 16.31432723999023 39 13.73079776763916 C 39 11.26468849182129 36.8029899597168 9.097847938537598 33.7759895324707 8.578537940979004 L 32.54571151733398 8.367467880249023 L 32.19482040405273 7.169558048248291 C 31.77669906616211 5.742127895355225 30.81896018981934 4.443228244781494 29.49802017211914 3.512128114700317 C 28.09460067749023 2.522878170013428 26.40089988708496 1.999998092651367 24.60000038146973 1.999998092651367 C 22.08510971069336 1.999998092651367 19.70355033874512 3.075268030166626 18.22933006286621 4.876358032226563 L 17.14068031311035 6.206387996673584 L 15.66205024719238 5.330138206481934 C 14.66123008728027 4.737048149108887 13.49878025054932 4.423558235168457 12.30037021636963 4.423558235168457 C 8.881270408630371 4.423558235168457 6.099629878997803 6.968297958374023 6.099629878997803 10.09619808197021 C 6.099629878997803 10.24461841583252 6.105959892272949 10.39461803436279 6.118450164794922 10.54203796386719 L 6.259779930114746 12.21029853820801 L 4.642409801483154 12.64293766021729 C 3.086600065231323 13.05911827087402 2 14.33685779571533 2 15.75018787384033 C 2 17.54213714599609 3.677860021591187 18.99999809265137 5.740220069885254 18.99999809265137 L 32.88985443115234 18.99999809265137 M 33.61991882324219 20.99999809265137 L 5.740220069885254 20.99999809265137 C 2.569740056991577 20.99999809265137 0 18.64986801147461 0 15.75018787384033 C 0 13.36321830749512 1.741269946098328 11.34866809844971 4.125589847564697 10.7108678817749 C 4.108409881591797 10.50807762145996 4.099629878997803 10.30312824249268 4.099629878997803 10.09619808197021 C 4.099629878997803 5.858978271484375 7.771220207214355 2.423557996749878 12.30037021636963 2.423557996749878 C 13.91145992279053 2.423557996749878 15.41423034667969 2.85847806930542 16.68166923522949 3.609568119049072 C 18.47378921508789 1.420098066329956 21.35325050354004 -1.9073486328125e-06 24.60000038146973 -1.9073486328125e-06 C 29.16262054443359 -1.9073486328125e-06 33.00009918212891 2.804008007049561 34.11417007446289 6.607337951660156 C 38.04315948486328 7.281398296356201 41 10.21443843841553 41 13.73079776763916 C 41 17.39320755004883 37.79262924194336 20.42278861999512 33.61991882324219 20.9263973236084 L 33.61991882324219 20.99999809265137 Z" stroke="none" fill="#fff"/>
    </g>
    <g id="big_cloud-2" data-name="big_cloud" transform="translate(371 116.711)" fill="#eee">
      <path d="M 32.94993591308594 19.99999809265137 L 5.740220069885254 19.99999809265137 C 3.126450061798096 19.99999809265137 1 18.09353828430176 1 15.75018787384033 C 1 14.82843780517578 1.324180006980896 13.95145797729492 1.937510013580322 13.21403789520264 C 2.546410083770752 12.48193836212158 3.415260076522827 11.93603801727295 4.383999824523926 11.67689800262451 L 5.192689895629883 11.46057796478271 L 5.12201976776123 10.6264476776123 C 5.107160091400146 10.45107841491699 5.099629878997803 10.27267837524414 5.099629878997803 10.09619808197021 C 5.099629878997803 6.416888236999512 8.329870223999023 3.423557996749878 12.30037021636963 3.423557996749878 C 13.67805957794189 3.423557996749878 15.01679992675781 3.785358190536499 16.17185974121094 4.469858169555664 L 16.91116905212402 4.907978057861328 L 17.45549964904785 4.242958068847656 C 18.25725936889648 3.263437986373901 19.31611061096191 2.449868202209473 20.5175895690918 1.890218138694763 C 21.78573036193848 1.299508094787598 23.15925025939941 0.9999980926513672 24.60000038146973 0.9999980926513672 C 28.62120056152344 0.9999980926513672 32.13893127441406 3.421418190002441 33.15449142456055 6.888448238372803 L 33.32994079589844 7.48740816116333 L 33.9450798034668 7.59293794631958 C 37.45354080200195 8.19484806060791 40 10.776198387146 40 13.73079776763916 C 40 15.21742820739746 39.35366058349609 16.66037750244141 38.18003082275391 17.79383850097656 C 36.9782600402832 18.95449829101563 35.31621932983398 19.71440887451172 33.50009918212891 19.93359756469727 L 32.94993591308594 19.99999809265137 Z" stroke="none"/>
      <path d="M 32.88985443115234 18.99999809265137 L 33.38027954101563 18.9408073425293 C 36.58404159545898 18.55413818359375 39 16.31432723999023 39 13.73079776763916 C 39 11.26468849182129 36.8029899597168 9.097847938537598 33.7759895324707 8.578537940979004 L 32.54571151733398 8.367467880249023 L 32.19482040405273 7.169558048248291 C 31.77669906616211 5.742127895355225 30.81896018981934 4.443228244781494 29.49802017211914 3.512128114700317 C 28.09460067749023 2.522878170013428 26.40089988708496 1.999998092651367 24.60000038146973 1.999998092651367 C 22.08510971069336 1.999998092651367 19.70355033874512 3.075268030166626 18.22933006286621 4.876358032226563 L 17.14068031311035 6.206387996673584 L 15.66205024719238 5.330138206481934 C 14.66123008728027 4.737048149108887 13.49878025054932 4.423558235168457 12.30037021636963 4.423558235168457 C 8.881270408630371 4.423558235168457 6.099629878997803 6.968297958374023 6.099629878997803 10.09619808197021 C 6.099629878997803 10.24461841583252 6.105959892272949 10.39461803436279 6.118450164794922 10.54203796386719 L 6.259779930114746 12.21029853820801 L 4.642409801483154 12.64293766021729 C 3.086600065231323 13.05911827087402 2 14.33685779571533 2 15.75018787384033 C 2 17.54213714599609 3.677860021591187 18.99999809265137 5.740220069885254 18.99999809265137 L 32.88985443115234 18.99999809265137 M 33.61991882324219 20.99999809265137 L 5.740220069885254 20.99999809265137 C 2.569740056991577 20.99999809265137 0 18.64986801147461 0 15.75018787384033 C 0 13.36321830749512 1.741269946098328 11.34866809844971 4.125589847564697 10.7108678817749 C 4.108409881591797 10.50807762145996 4.099629878997803 10.30312824249268 4.099629878997803 10.09619808197021 C 4.099629878997803 5.858978271484375 7.771220207214355 2.423557996749878 12.30037021636963 2.423557996749878 C 13.91145992279053 2.423557996749878 15.41423034667969 2.85847806930542 16.68166923522949 3.609568119049072 C 18.47378921508789 1.420098066329956 21.35325050354004 -1.9073486328125e-06 24.60000038146973 -1.9073486328125e-06 C 29.16262054443359 -1.9073486328125e-06 33.00009918212891 2.804008007049561 34.11417007446289 6.607337951660156 C 38.04315948486328 7.281398296356201 41 10.21443843841553 41 13.73079776763916 C 41 17.39320755004883 37.79262924194336 20.42278861999512 33.61991882324219 20.9263973236084 L 33.61991882324219 20.99999809265137 Z" stroke="none" fill="#fff"/>
    </g>
    <g id="rain" transform="translate(-108 8.711)">
      <line id="rain_drop_1" x1="5" y2="6" transform="translate(483 130)" fill="none" stroke="#7bf" stroke-linecap="round" stroke-width="2"/>
      <line id="rain_drop_2" x1="5" y2="6" transform="translate(490 130)" fill="none" stroke="#7bf" stroke-linecap="round" stroke-width="2"/>
      <line id="rain_drop_3" x1="5" y2="6" transform="translate(497 130)" fill="none" stroke="#7bf" stroke-linecap="round" stroke-width="2"/>
      <line id="rain_drop_4" x1="5" y2="6" transform="translate(504 130)" fill="none" stroke="#7bf" stroke-linecap="round" stroke-width="2"/>
    </g>
  </g>
</svg>
