<svg xmlns="http://www.w3.org/2000/svg" width="44.999" height="44.499" viewBox="0 0 44.999 44.499">
  <path id="snow" d="M21,34.677v0Zm0,0,5.676,5.685Zm0,0-5.675,5.685ZM31.783,30.13v0Zm-21.251,0v0Zm21.251,0L36.6,34.955Zm-21.251,0h0L5.715,34.954ZM21,34.677ZM21,34.677Zm0,0v0ZM31.783,30.13h0Zm0,0-4.816-4.823ZM10.532,30.13Zm0,0,4.815-4.824Zm4.224-9.664A6.243,6.243,0,1,1,21,26.719,6.248,6.248,0,0,1,14.756,20.466Zm20.431,0,5.676,5.684Zm-28.377,0h0L1.135,14.78l5.676,5.684h0L1.135,26.15ZM6.811,20.465Zm28.377,0,5.676-5.685-5.676,5.685h0Zm-6.81,0h0Zm2.838-10.232v0l4.816-4.825-4.816,4.825L26.4,15.057Zm-20.431,0h0L5.968,5.409l4.816,4.824v0L15.6,15.057ZM10.784,10.233ZM10.784,10.233ZM21,6.822v0Zm18.242,3.411h0Zm-12.567-9.1L21,6.822Zm-11.351,0L21,6.822Z" transform="translate(1.5 1.5)" fill="none" stroke="#707070" stroke-linejoin="round" stroke-width="3"/>
</svg>
